<svg width="341.805298" height="303.009216" viewBox="0 0 341.805 303.009" fill="none" xmlns="http://www.w3.org/2000/svg" xmlns:xlink="http://www.w3.org/1999/xlink">
	<desc>
			Created with Pixso.
	</desc>
	<defs/>
	<path id="Vector 7" d="M1.00037 101.275C4.21014 128.146 7.20624 155.421 18.1044 180.503C22.032 189.542 27.0993 200.035 35.2418 206.142C44.1122 212.795 48.3328 204.05 50.4045 196C53.9116 182.372 55.8589 167.375 53.8855 153.357C51.0262 133.046 42.8573 113.289 34.3046 94.8154C30.3939 86.3683 25.945 78.23 21.7863 69.9125C20.014 66.368 20.2465 68.7599 20.4139 71.4857C23.3516 119.328 35.9279 166.747 51.7433 211.765C59.5502 233.987 68.5116 255.686 79.5582 276.499C83.8569 284.599 96.5768 308.83 93.5828 300.164C91.3905 293.818 85.382 287.767 81.1314 282.892C68.2518 268.123 54.1893 254.316 40.0952 240.718C35.5331 236.316 29.3759 231.836 26.0706 226.258C24.3618 223.375 26.1865 222.494 28.1124 220.568" stroke="#CBCBCB" stroke-opacity="1.000000" stroke-width="2.000000" stroke-linecap="round"/>
	<path id="Vector 8" d="M74.5032 138.63C70.6357 135.004 72.1218 145.746 72.1602 147.198C72.3999 156.245 72.9329 165.627 75.7083 174.31C76.2281 175.937 78.3674 182.538 81.0972 182.31C84.3061 182.043 86.226 170.531 86.62 168.62C88.7988 158.051 88.598 146.884 87.6576 136.186C87.5325 134.764 87.3435 124.943 85.2142 123.701C84.9125 123.525 84.8116 124.295 84.7455 124.638C84.0844 128.068 84.2145 131.797 84.1765 135.249C84.0358 148.06 84.0921 161.141 87.8919 173.507C89.7101 179.424 93.0556 188.704 99.6739 190.946C105.331 192.862 108.414 183.669 109.648 180C117.697 156.071 114.993 128.028 107.439 104.422C107.005 103.063 106.941 101.446 105.967 100.405C104.094 98.4028 105.302 105.864 105.331 108.606C105.507 125.238 107.541 141.704 110.586 158.043C113.546 173.93 116.926 190.03 123.071 205.037C123.531 206.162 124.701 208.995 125.514 210.326C126.513 211.96 126.178 209.538 126.317 209.121" stroke="#CBCBCB" stroke-opacity="1.000000" stroke-width="2.000000" stroke-linecap="round"/>
	<path id="Vector 9" d="M88.9627 92.2377C88.1668 90.3705 86.7173 88.089 86.3519 86.079C86.2135 85.3178 87.1618 87.3998 87.6238 88.0203C91.1428 92.7467 95.3563 96.8846 99.6736 100.873C110.744 111.101 122.915 119.667 135.488 127.918C144.551 133.866 156.082 139.518 163.169 147.968C166.624 152.087 167.178 157.044 165.613 162.093C161.793 174.411 151.675 184.861 144.258 195.062C137.908 203.796 130.682 213.162 127.823 223.781C127.096 226.481 126.784 228.83 127.522 231.413" stroke="#CBCBCB" stroke-opacity="1.000000" stroke-width="2.000000" stroke-linecap="round"/>
	<path id="Vector 10" d="M133.547 230.208C147.466 210.523 162.405 191.028 172.441 168.955C179.182 154.13 183.621 138.286 186.332 122.262C187.29 116.6 188.439 99.3961 187.704 105.091C184.434 130.435 183.763 156.428 183.219 181.942C182.905 196.675 182.466 211.867 185.629 226.358C185.736 226.849 186.971 235.416 187.771 231.413" stroke="#CBCBCB" stroke-opacity="1.000000" stroke-width="2.000000" stroke-linecap="round"/>
	<path id="Vector 11" d="M155.84 195.866C164.012 191.447 171.166 189.626 180.141 187.732C183.468 187.03 188.608 186.718 190.785 183.816" stroke="#CBCBCB" stroke-opacity="1.000000" stroke-width="2.000000" stroke-linecap="round"/>
	<path id="Vector 12" d="M191.989 188.636C198.933 186.017 199.399 186.477 205.779 180.402C215.412 171.23 224.417 159.551 228.975 146.93C232.717 136.568 231.482 123.366 227.402 113.258C226.362 110.683 222.736 101.387 218.331 103.15C214.643 104.625 212.4 110.086 211.067 113.325C207.806 121.25 205.963 129.841 204.407 138.228C199.711 163.534 191.198 210.013 223.318 221.539C233.691 225.261 244.659 222.716 252.706 215.213C265.199 203.564 263.021 186.003 263.685 170.561" stroke="#CBCBCB" stroke-opacity="1.000000" stroke-width="2.000000" stroke-linecap="round"/>
	<path id="Vector 13" d="M246.213 120.555C251.926 136.884 257.434 153.157 264.957 168.754C267.375 173.765 269.599 179.274 273.827 183.08C279.436 188.127 287.006 162.857 287.651 160.721C292.997 143.006 295.904 124.439 299.366 106.296C303.959 82.2325 307.445 57.1105 316.939 34.3653C321.348 23.8019 326.532 11.4988 334.88 3.3371C337.065 1.20013 337.93 0.543396 340.804 1.26184" stroke="#CBCBCB" stroke-opacity="1.000000" stroke-width="2.000000" stroke-linecap="round"/>
</svg>
