<svg width="958.909485" height="847.715332" viewBox="0 0 958.909 847.715" fill="none" xmlns="http://www.w3.org/2000/svg" xmlns:xlink="http://www.w3.org/1999/xlink">
	<desc>
			Created with Pixso.
	</desc>
	<defs/>
	<path id="Vector 1" d="M19.8943 439.329C8.67773 464.684 1.76752 486.114 1.5274 514.158C1.18207 554.495 3.58893 596.34 14.2822 635.414C27.6445 684.24 75.1035 792.74 143.106 756.84C172.262 741.448 189.654 710.932 200.503 680.991C221.99 621.692 228.718 553.588 224.482 490.859C221.981 453.823 212.407 418.271 198.802 383.888C196.008 376.828 189.641 362.627 186.047 354.977C185.039 352.832 184.008 350.696 182.901 348.6C181.504 345.955 181.001 344.456 180.86 348.26C179.87 375.012 184.149 403.02 186.217 429.551C190.853 489.019 195.493 548.503 195.061 608.203C194.657 663.926 191.142 720.081 182.136 775.122C178.453 797.627 173.866 822.014 163.259 842.552C162.503 844.016 160.166 847.298 159.517 845.783C156.72 839.255 161.125 825.193 162.493 819.508C169.688 789.624 180.735 760.692 190.469 731.585C206.397 683.958 220.757 635.793 232.475 586.945C239.59 557.286 245.89 527.252 248.461 496.811C248.853 492.168 252.986 468.518 249.141 463.819C247.754 462.123 248.191 468.104 247.951 470.281C247.438 474.925 246.347 487.986 246.08 491.709C243.327 530.141 242.523 568.924 243.699 607.438C244.305 627.286 244.9 649.255 254.158 667.386C259.242 677.341 267.833 682.88 275.671 671.978C289.637 652.551 296.039 626.309 301.861 603.612C311.425 566.325 317.271 528.578 318.187 490.094C318.418 480.404 319.805 468.761 318.187 459.057C316.664 449.916 314.082 477.159 312.915 486.352C308.971 517.438 306.392 548.678 304.837 579.973C303.31 610.719 299.029 646.491 308.324 676.569C316.215 702.107 341.885 705.758 362.914 692.98C380.139 682.515 384.172 661.501 384.172 642.896" stroke="#2C2C2C" stroke-opacity="1.000000" stroke-width="3.000000" stroke-linecap="round"/>
	<path id="Vector 2" d="M338.255 419.432C343.629 491.989 355.09 563.207 367.081 634.903C370.741 656.789 373.734 678.846 377.965 700.633C378.581 703.808 379.725 716.48 382.982 719.085C385.612 721.189 384.21 712.419 384.172 709.052C383.829 678.516 380.81 647.647 376.944 617.387C369.397 558.297 353.095 500.059 334.003 443.751C329.04 429.113 320.647 414.021 340.721 410.418C356.557 407.576 373.445 409.612 389.104 412.459C412.021 416.626 439.384 423.761 454.409 443.241C486.353 484.657 450.308 542.328 426.773 577.932C417.467 592.011 406.817 604.921 396.502 618.237C394.34 621.028 391.983 625.981 388.764 627.591" stroke="#2C2C2C" stroke-opacity="1.000000" stroke-width="3.000000" stroke-linecap="round"/>
	<path id="Vector 3" d="M462.233 411.779C461.571 505.071 422.438 593.316 422.438 686.518C422.438 696.277 422.311 707.858 428.39 691.705C436.381 670.471 440.478 647.896 443.866 625.55C449.3 589.707 453.301 553.435 455.09 517.219C457.16 475.32 458.334 431.817 453.9 390.01C453.671 387.854 453.011 381.383 453.134 383.548C454.028 399.18 456.808 414.47 460.702 429.635C472.912 477.188 491.296 525.568 516.653 567.728C522.512 577.468 529.478 586.276 535.871 595.618C539.002 600.195 535.965 599.09 532.64 600.04" stroke="#2C2C2C" stroke-opacity="1.000000" stroke-width="3.000000" stroke-linecap="round"/>
	<path id="Vector 4" d="M434.682 581.673C467.32 565.674 500.154 552.563 529.578 531.164" stroke="#2C2C2C" stroke-opacity="1.000000" stroke-width="3.000000" stroke-linecap="round"/>
	<path id="Vector 5" d="M517.332 523.511C545.055 508.92 572.609 495.307 594.881 472.832C612.72 454.832 632.417 430.587 634.592 404.126C635.658 391.154 623.434 381.259 610.698 385.929C600.517 389.662 592.319 399.857 585.868 407.867C570.133 427.406 557.706 449.634 549.474 473.342C542.914 492.237 528.598 533.732 545.903 551.317C563.573 569.272 600.568 563.892 621.922 557.864C642.713 551.995 676.93 542.459 689.012 522.321C698.415 506.649 697.288 486.022 697.941 468.41" stroke="#2C2C2C" stroke-opacity="1.000000" stroke-width="3.000000" stroke-linecap="round"/>
	<path id="Vector 6" d="M669.363 367.873C698.626 431.054 709.446 499.314 723.546 566.918C729.797 596.888 737.203 626.993 746.006 656.334C751.085 673.264 756.054 638.716 756.393 637.103C785.882 496.757 788.399 354.152 838.089 217.957C859.102 160.362 887.768 106.641 919.644 54.4258C931.097 35.6646 942.644 17.741 957.403 1.5061" stroke="#2C2C2C" stroke-opacity="1.000000" stroke-width="3.000000" stroke-linecap="round"/>
</svg>
