<svg width="11.000000" height="11.000000" viewBox="0 0 11 11" fill="none" xmlns="http://www.w3.org/2000/svg" xmlns:xlink="http://www.w3.org/1999/xlink">
	<desc>
			Created with Pixso.
	</desc>
	<defs>
		<clipPath id="clip2_42">
			<rect id="akar-icons:sun-fill" width="11.000000" height="11.000000" fill="white" fill-opacity="0"/>
		</clipPath>
	</defs>
	<rect id="akar-icons:sun-fill" width="11.000000" height="11.000000" fill="#FFFFFF" fill-opacity="0"/>
	<g clip-path="url(#clip2_42)">
		<path id="Vector" d="M5.49998 3.2085C4.8922 3.2085 4.3093 3.44971 3.87953 3.87988C3.44975 4.30957 3.20831 4.89258 3.20831 5.5C3.20831 6.10791 3.44975 6.69092 3.87953 7.12061C4.3093 7.55029 4.8922 7.79199 5.49998 7.79199C6.10777 7.79199 6.69066 7.55029 7.12044 7.12061C7.5502 6.69092 7.79164 6.10791 7.79164 5.5C7.79164 4.89258 7.5502 4.30957 7.12044 3.87988C6.69066 3.44971 6.10777 3.2085 5.49998 3.2085Z" fill="#FFFFFF" fill-opacity="1.000000" fill-rule="nonzero"/>
		<path id="Vector" d="M5.49998 0.458496C5.62154 0.458496 5.73811 0.506836 5.82407 0.592773C5.91002 0.678711 5.95831 0.79541 5.95831 0.916992L5.95831 1.375C5.95831 1.49658 5.91002 1.61328 5.82407 1.69922C5.73811 1.78516 5.62154 1.8335 5.49998 1.8335C5.37842 1.8335 5.26184 1.78516 5.17589 1.69922C5.08994 1.61328 5.04164 1.49658 5.04164 1.375L5.04164 0.916992C5.04164 0.79541 5.08994 0.678711 5.17589 0.592773C5.26184 0.506836 5.37842 0.458496 5.49998 0.458496ZM1.50928 1.50928C1.59521 1.42334 1.71178 1.37549 1.83331 1.37549C1.95485 1.37549 2.07141 1.42334 2.15735 1.50928L2.84485 2.19678C2.92834 2.2832 2.97455 2.39941 2.9735 2.51953C2.97246 2.63965 2.92426 2.75439 2.83926 2.83936C2.75429 2.92432 2.63934 2.97266 2.51917 2.97363C2.39899 2.97461 2.28322 2.92871 2.19678 2.84521L1.50928 2.15771C1.42334 2.07178 1.37508 1.95508 1.37508 1.8335C1.37508 1.71191 1.42334 1.59521 1.50928 1.50928ZM9.49069 1.50928C9.57661 1.59521 9.62488 1.71191 9.62488 1.8335C9.62488 1.95508 9.57661 2.07178 9.49069 2.15771L8.80319 2.84521C8.76091 2.88867 8.71033 2.92383 8.65442 2.94775C8.5985 2.97168 8.53836 2.98438 8.47749 2.98486C8.41664 2.98535 8.35629 2.97363 8.29996 2.95068C8.24364 2.92773 8.19246 2.89355 8.14943 2.85059C8.10638 2.80762 8.07236 2.75635 8.04932 2.7002C8.02626 2.64404 8.01466 2.5835 8.0152 2.52246C8.01573 2.46191 8.02837 2.40186 8.0524 2.3457C8.07642 2.29004 8.11133 2.23926 8.15511 2.19678L8.84261 1.50928C8.92856 1.42334 9.04512 1.37549 9.16664 1.37549C9.28818 1.37549 9.40474 1.42334 9.49069 1.50928ZM0.458313 5.5C0.458313 5.37842 0.506607 5.26221 0.59256 5.17627C0.678513 5.09033 0.79509 5.04199 0.916641 5.04199L1.37498 5.04199C1.49654 5.04199 1.61311 5.09033 1.69907 5.17627C1.78502 5.26221 1.83331 5.37842 1.83331 5.5C1.83331 5.62158 1.78502 5.73828 1.69907 5.82422C1.61311 5.91016 1.49654 5.9585 1.37498 5.9585L0.916641 5.9585C0.79509 5.9585 0.678513 5.91016 0.59256 5.82422C0.506607 5.73828 0.458313 5.62158 0.458313 5.5ZM9.16664 5.5C9.16664 5.37842 9.21494 5.26221 9.30089 5.17627C9.38684 5.09033 9.50342 5.04199 9.62498 5.04199L10.0833 5.04199C10.2049 5.04199 10.3215 5.09033 10.4074 5.17627C10.4934 5.26221 10.5416 5.37842 10.5416 5.5C10.5416 5.62158 10.4934 5.73828 10.4074 5.82422C10.3215 5.91016 10.2049 5.9585 10.0833 5.9585L9.62498 5.9585C9.50342 5.9585 9.38684 5.91016 9.30089 5.82422C9.21494 5.73828 9.16664 5.62158 9.16664 5.5ZM2.84485 8.15527C2.93079 8.24121 2.97905 8.35791 2.97905 8.47949C2.97905 8.60107 2.93079 8.71729 2.84485 8.80322L2.15735 9.49072C2.07091 9.57422 1.95514 9.62061 1.83496 9.61963C1.71478 9.61865 1.59984 9.57031 1.51486 9.48535C1.42987 9.40039 1.38167 9.28516 1.38063 9.16504C1.37958 9.04492 1.42578 8.9292 1.50928 8.84277L2.19678 8.15527C2.28271 8.06934 2.39928 8.021 2.52081 8.021C2.64235 8.021 2.75891 8.06934 2.84485 8.15527ZM8.15511 8.15527C8.24106 8.06934 8.35762 8.021 8.47914 8.021C8.60068 8.021 8.71724 8.06934 8.80319 8.15527L9.49069 8.84277C9.57417 8.9292 9.62038 9.04492 9.61932 9.16504C9.61829 9.28516 9.57008 9.40039 9.48511 9.48535C9.40013 9.57031 9.28517 9.61865 9.16499 9.61963C9.04483 9.62061 8.92905 9.57422 8.84261 9.49072L8.15511 8.80322C8.06918 8.71729 8.0209 8.60107 8.0209 8.47949C8.0209 8.35791 8.06918 8.24121 8.15511 8.15527ZM5.49998 9.16699C5.62154 9.16699 5.73811 9.21533 5.82407 9.30127C5.91002 9.38721 5.95831 9.50342 5.95831 9.625L5.95831 10.0835C5.95831 10.2051 5.91002 10.3218 5.82407 10.4077C5.73811 10.4937 5.62154 10.542 5.49998 10.542C5.37842 10.542 5.26184 10.4937 5.17589 10.4077C5.08994 10.3218 5.04164 10.2051 5.04164 10.0835L5.04164 9.625C5.04164 9.50342 5.08994 9.38721 5.17589 9.30127C5.26184 9.21533 5.37842 9.16699 5.49998 9.16699Z" fill="#FFFFFF" fill-opacity="1.000000" fill-rule="evenodd"/>
	</g>
</svg>
